<svg id="SvgjsSvg1042" width="288" height="288" xmlns="http://www.w3.org/2000/svg" version="1.1" xmlns:xlink="http://www.w3.org/1999/xlink" xmlns:svgjs="http://svgjs.com/svgjs"><defs id="SvgjsDefs1043"></defs><g id="SvgjsG1044" transform="matrix(0.9167,0,0,0.9167,11.978652186679852,11.988670478986222)"><svg xmlns="http://www.w3.org/2000/svg" viewBox="0 0 24 24" width="288" height="288"><path fill="#4597ff" d="M21.68 11H2.32A2.32 2.32 0 000 13.77l1.72 8.62a2 2 0 002 1.61H20.27a2 2 0 002-1.61L24 13.77a2.3 2.3 0 000-.45A2.32 2.32 0 0021.68 11zM13.5 15.5A1.5 1.5 0 0112 17 1.5 1.5 0 0113.5 15.5zm-.34 5a7.37 7.37 0 01-1.08-.2 7.37 7.37 0 01-1.08.2c-.6 0-1.49-1.08-1.49-2a1.48 1.48 0 011.35-1.37c.45 0 .85.2 1.22.2s.77-.2 1.22-.2a1.55 1.55 0 011 .53c-.44.1-.76.39-.76.74s.41.72.94.77C14.22 19.89 13.61 20.5 13.16 20.5zM7.16 9.77a.5.5 0 00.42.23h8.36a.5.5 0 00.42-.23A6.5 6.5 0 0017 7.25 1.86 1.86 0 0016.57 6 3.5 3.5 0 0017 4.53l.32-.28a.5.5 0 00.17-.37C17.5 2 15.49 0 12.24 0A4.65 4.65 0 009.16.87 2.86 2.86 0 007 3.45v.41a11.33 11.33 0 00.09 2.05A1.77 1.77 0 006.5 7.25 6.5 6.5 0 007.16 9.77z" class="color303c42 svgShape"></path></svg></g></svg>