<?xml version="1.0" encoding="UTF-8"?><svg xmlns="http://www.w3.org/2000/svg" xmlns:xlink="http://www.w3.org/1999/xlink" version="1.1" id="Layer_1" x="0px" y="0px" viewBox="0 0 48 48" xml:space="preserve"><linearGradient id="SVGID_1_" gradientUnits="userSpaceOnUse" x1="24" y1="658" x2="24" y2="618.146" gradientTransform="matrix(1 0 0 -1 0 662)"><stop offset="0" stop-color="#42BCE8"/><stop offset="1" stop-color="#23A7DC"/></linearGradient><circle cx="24" cy="24" r="20" fill="url(#SVGID_1_)"/><path d="M34.176 14.811l-3.817 19.492s-.534 1.352-2.002.703l-8.809-6.84-3.203-1.568-5.392-1.838s-.828-.297-.908-.946c-.08-.649.934-1 .934-1l21.436-8.516c-.001-.001 1.761-.785 1.761.513z" fill="#FFF"/><path d="M18.87 34.083s-.257-.024-.578-1.052c-.32-1.027-1.949-6.434-1.949-6.434L29.29 18.27s.747-.46.721 0c0 0 .133.081-.267.46s-10.171 9.273-10.171 9.273" fill="#D2E5F1"/><path d="M22.925 30.788l-3.484 3.217s-.272.209-.57.078l.667-5.976" fill="#B5CFE4"/><metadata><rdf:RDF xmlns:rdf="http://www.w3.org/1999/02/22-rdf-syntax-ns#" xmlns:rdfs="http://www.w3.org/2000/01/rdf-schema#" xmlns:dc="http://purl.org/dc/elements/1.1/"><rdf:Description about="https://iconscout.com/legal#licenses" dc:title="telegram,app" dc:description="telegram,app" dc:publisher="Iconscout" dc:date="2017-12-15" dc:format="image/svg+xml" dc:language="en"><dc:creator><rdf:Bag><rdf:li>Icons8</rdf:li></rdf:Bag></dc:creator></rdf:Description></rdf:RDF></metadata></svg>